<?xml version="1.0" standalone="no"?>
<!DOCTYPE svg PUBLIC "-//W3C//DTD SVG 20010904//EN"
 "http://www.w3.org/TR/2001/REC-SVG-20010904/DTD/svg10.dtd">
<svg version="1.0" xmlns="http://www.w3.org/2000/svg"
 width="720.000000pt" height="720.000000pt" viewBox="0 0 720.000000 720.000000"
 preserveAspectRatio="xMidYMid meet">
<metadata>
Created by potrace 1.14, written by Peter Selinger 2001-2017
</metadata>
<g transform="translate(0.000000,720.000000) scale(0.100000,-0.100000)"
fill="#000000" stroke="none">
<path d="M2811 6989 c-52 -27 -98 -49 -103 -49 -4 0 -27 -8 -51 -19 -54 -24
-184 -73 -267 -101 -276 -92 -505 -193 -640 -280 -147 -96 -288 -221 -439
-389 -82 -92 -96 -93 -88 -6 4 36 3 65 -1 65 -18 0 -101 -100 -126 -152 -28
-59 -56 -170 -56 -226 0 -18 -8 -49 -19 -70 -10 -20 -31 -75 -46 -122 -33
-100 -39 -110 -72 -110 -28 0 -74 -22 -121 -57 -31 -23 -61 -71 -76 -120 -6
-20 -4 -23 19 -23 14 0 36 5 47 11 24 13 100 -5 120 -28 10 -13 8 -19 -12 -35
-88 -70 -234 -236 -262 -298 -80 -173 -83 -400 -12 -760 52 -262 112 -441 279
-834 28 -66 36 -93 28 -105 -5 -9 -16 -27 -24 -41 -8 -14 -16 -27 -19 -30 -28
-27 -42 -189 -20 -230 5 -10 11 -32 12 -50 1 -17 6 -34 10 -36 4 -3 8 -15 8
-28 0 -12 4 -26 8 -31 5 -6 14 -30 21 -55 8 -25 22 -65 33 -90 11 -25 24 -54
28 -65 27 -68 36 -85 42 -85 5 0 8 -8 8 -19 0 -10 7 -24 15 -31 8 -6 14 -15
13 -18 -1 -4 6 -24 15 -46 9 -21 17 -40 17 -42 0 -6 56 -118 85 -169 40 -70
75 -113 112 -135 23 -13 33 -28 37 -52 39 -260 68 -414 96 -498 4 -14 16 -52
25 -85 17 -59 37 -112 56 -147 5 -10 9 -22 9 -28 0 -5 34 -62 75 -126 73 -114
231 -302 283 -336 15 -9 45 -30 67 -47 61 -45 217 -138 245 -146 14 -4 30 -11
35 -14 11 -8 249 -84 310 -99 133 -34 168 -37 400 -37 258 0 324 7 534 56 144
34 150 36 386 126 123 47 465 244 524 302 9 9 47 42 85 73 56 49 71 56 87 48
28 -16 23 -34 -16 -64 -45 -34 -75 -94 -82 -161 -10 -93 38 -182 120 -223 52
-26 57 -40 27 -67 -84 -76 -66 -259 29 -317 116 -71 250 -123 445 -176 163
-43 403 -37 691 18 61 12 125 24 143 27 18 3 35 9 38 14 3 5 16 9 29 9 13 0
27 4 30 10 3 5 14 10 24 10 26 0 172 73 243 122 71 47 224 199 253 249 57 101
93 169 108 208 59 147 63 346 11 521 -30 102 -110 253 -220 420 -39 58 -76
119 -84 135 -8 17 -21 36 -27 43 -7 7 -32 54 -57 105 -54 114 -72 209 -55 300
15 88 50 197 71 229 10 14 18 33 18 41 0 8 16 47 35 86 25 50 38 92 42 136 5
58 4 65 -19 90 -17 17 -28 23 -32 16 -4 -6 0 -11 11 -12 11 0 13 -3 5 -6 -6
-2 -10 -9 -6 -14 3 -5 1 -9 -5 -9 -5 0 -13 -9 -16 -20 -4 -12 -14 -28 -24 -38
-26 -26 -101 -119 -101 -125 0 -3 -17 -32 -39 -64 -21 -32 -44 -74 -51 -93 -8
-20 -43 -62 -80 -96 -56 -52 -65 -64 -55 -78 7 -9 17 -16 23 -16 7 0 18 -15
26 -34 8 -18 19 -37 25 -40 6 -4 11 -13 11 -20 0 -7 20 -44 45 -80 25 -37 45
-74 45 -81 0 -20 49 -125 71 -154 11 -13 19 -31 19 -40 0 -9 11 -30 25 -46 38
-47 92 -120 104 -144 7 -12 17 -18 23 -15 7 5 9 2 5 -9 -3 -9 8 -35 29 -64 19
-26 34 -43 34 -38 0 6 7 -3 15 -19 8 -15 15 -34 15 -42 0 -8 6 -11 17 -7 10 4
14 2 10 -4 -4 -6 2 -22 13 -35 11 -14 16 -28 13 -32 -3 -3 -2 -6 3 -6 30 0 20
-305 -12 -341 -8 -8 -14 -23 -14 -32 0 -8 -6 -22 -12 -29 -7 -8 -17 -21 -23
-29 -46 -72 -68 -100 -85 -109 -11 -6 -20 -17 -20 -24 0 -7 -18 -18 -40 -25
-23 -7 -40 -18 -40 -26 0 -8 -6 -15 -13 -15 -8 0 -22 -9 -32 -20 -10 -11 -24
-20 -32 -20 -7 0 -16 -7 -20 -16 -3 -9 -20 -22 -37 -30 -17 -7 -24 -14 -16
-15 8 -1 2 -4 -15 -8 -18 -3 -34 -15 -40 -29 -5 -12 -18 -22 -27 -22 -10 0
-18 -4 -18 -10 0 -5 -7 -10 -15 -10 -16 0 -55 -34 -55 -49 0 -4 -11 -6 -25 -3
-17 3 -27 -1 -31 -12 -3 -9 -14 -16 -24 -16 -11 0 -22 -5 -26 -11 -3 -6 -16
-8 -27 -5 -12 3 -26 1 -32 -4 -17 -14 -142 -33 -205 -31 -48 1 -104 13 -190
41 -14 5 -54 14 -90 20 -146 28 -191 53 -254 144 -43 63 -48 94 -19 125 17 18
35 22 134 27 150 8 149 8 187 28 28 15 31 19 21 37 -6 12 -8 30 -6 41 6 20 -9
56 -27 70 -5 3 -42 11 -83 17 -112 17 -153 43 -227 143 -15 22 -39 40 -54 44
-39 8 -101 33 -115 44 -7 6 -20 16 -29 23 -41 28 16 80 69 63 10 -3 32 -8 48
-10 17 -2 42 -7 57 -11 24 -6 34 0 80 44 36 35 62 53 87 57 47 7 81 21 81 33
0 5 -28 27 -62 47 -34 21 -86 59 -115 86 -29 26 -74 57 -100 69 -26 12 -56 29
-65 38 -9 9 -33 31 -52 49 -20 18 -36 39 -36 47 0 8 -5 15 -12 15 -6 0 -8 3
-5 7 4 3 -1 12 -11 19 -14 11 -15 16 -5 33 10 16 10 20 -5 23 -13 3 -9 8 15
21 33 18 167 25 177 9 2 -4 18 -9 35 -10 17 -1 43 -7 58 -13 43 -18 253 -61
298 -62 22 0 69 3 105 6 36 4 90 9 120 12 30 3 76 13 103 22 46 17 47 18 47
60 0 24 4 51 9 61 19 35 40 109 51 177 16 104 27 130 71 169 38 35 39 37 30
77 -5 23 -13 45 -18 48 -20 15 -67 127 -71 170 -5 64 31 178 73 234 33 43 107
92 119 80 3 -4 6 -2 6 4 0 22 -64 11 -109 -19 -105 -70 -199 -194 -240 -318
-45 -133 -47 -163 -29 -347 12 -124 10 -146 -26 -236 -10 -26 -75 -75 -136
-105 -37 -17 -110 -21 -155 -7 -118 37 -150 44 -239 56 -53 7 -103 17 -111 23
-12 9 -12 38 -5 171 6 99 5 206 -1 283 -6 77 -6 129 0 140 7 14 23 18 64 19
39 1 65 8 90 24 36 24 102 119 113 163 3 15 10 29 15 32 5 3 9 14 9 25 0 10 4
27 9 37 15 29 35 103 33 125 0 12 3 26 7 32 11 13 20 75 11 75 -3 0 -17 -37
-30 -82 -24 -83 -79 -205 -109 -241 -62 -74 -117 -117 -151 -117 -21 0 -22 3
-16 53 10 78 9 77 47 157 20 41 44 100 54 130 11 30 25 62 32 71 7 8 13 25 13
36 0 11 6 51 14 89 8 38 20 105 26 149 16 103 43 153 93 170 20 7 37 8 37 3 0
-5 4 -6 10 -3 6 3 10 -4 10 -17 1 -13 2 -49 3 -80 1 -32 -2 -58 -7 -58 -5 0
-3 -7 4 -15 7 -8 16 -15 21 -15 5 0 9 66 9 148 0 150 -10 211 -46 287 -19 42
-75 105 -96 109 -7 1 -23 8 -35 14 -15 8 -23 9 -23 2 0 -5 7 -10 16 -10 9 0
12 -5 8 -12 -4 -7 -3 -8 4 -4 7 4 12 3 12 -3 0 -5 8 -11 18 -14 15 -3 15 -5
-3 -12 -26 -11 -103 -71 -136 -106 -14 -16 -29 -26 -31 -23 -12 11 5 140 20
157 12 14 13 17 1 17 -11 0 -11 2 1 11 12 8 10 9 -8 4 -35 -10 -54 11 -46 54
22 122 57 293 73 359 36 142 47 442 20 526 -5 16 -9 42 -9 57 0 15 -4 38 -9
51 -5 13 -14 48 -21 78 -44 203 -181 495 -324 695 -88 122 -134 176 -311 360
-95 99 -190 201 -211 227 -22 25 -74 88 -116 140 -102 123 -282 299 -389 381
-89 67 -287 177 -319 177 -11 0 -21 4 -24 9 -6 8 -31 14 -131 27 -22 3 -58 -1
-80 -8 -37 -12 -40 -16 -38 -48 1 -19 -4 -60 -10 -90 -9 -46 -20 -64 -67 -112
-67 -69 -104 -78 -114 -27 -9 44 -7 133 3 206 11 72 5 103 -18 102 -9 -1 -58
-23 -110 -50z m895 -1867 c74 -44 164 -121 164 -138 0 -7 3 -14 8 -16 23 -10
99 -143 107 -188 3 -16 42 -132 55 -165 5 -11 11 -40 15 -64 3 -24 8 -48 11
-53 3 -5 7 -34 9 -64 2 -30 8 -60 13 -67 5 -7 13 -28 17 -47 4 -19 11 -39 15
-45 4 -5 3 -15 -4 -21 -9 -8 -29 -3 -77 20 -67 33 -108 47 -199 69 -40 9 -54
17 -51 27 6 21 4 55 -8 123 -6 31 -15 81 -20 110 -21 117 -78 354 -92 379 -5
10 -9 27 -9 37 0 11 -4 23 -10 26 -5 3 -10 17 -10 30 0 13 -4 27 -10 30 -14 9
-12 55 3 55 6 0 40 -17 73 -38z m-926 -199 c51 -19 198 -94 244 -126 43 -30
145 -116 183 -154 106 -108 259 -327 247 -357 -3 -8 -29 -24 -57 -36 -91 -38
-221 -121 -252 -160 -16 -21 -33 -36 -37 -33 -5 2 -8 -3 -8 -12 0 -8 -7 -18
-16 -22 -8 -3 -13 -12 -10 -19 3 -8 0 -14 -6 -14 -28 0 -86 -52 -98 -89 -13
-42 -8 -61 17 -61 23 0 60 -44 68 -80 4 -16 10 -30 13 -30 9 0 8 -262 -1 -276
-3 -6 -6 -42 -7 -80 -1 -186 33 -227 156 -191 44 13 48 17 61 61 16 53 68 139
106 174 l24 23 5 -48 c3 -27 17 -75 31 -107 31 -66 15 -64 172 -26 92 22 228
53 323 73 77 15 89 37 72 125 -13 67 -41 135 -60 147 -23 14 -9 26 23 20 54
-12 205 -97 222 -126 17 -27 85 6 85 42 0 28 -143 106 -245 135 -130 35 -234
46 -325 32 -47 -6 -88 -12 -92 -12 -3 -1 -10 -4 -14 -8 -4 -5 -18 -8 -30 -8
-13 0 -25 -4 -29 -9 -3 -5 -22 -15 -42 -22 -21 -7 -58 -26 -83 -43 -25 -17
-62 -40 -82 -51 -21 -11 -38 -23 -38 -27 0 -5 -5 -8 -12 -8 -6 0 -19 -6 -27
-14 -9 -7 -31 -18 -49 -24 -28 -10 -35 -9 -54 10 -16 16 -19 27 -13 57 4 20 6
45 6 57 0 11 10 30 22 42 32 30 47 50 47 61 0 19 118 167 166 210 46 41 184
118 184 103 0 -4 5 0 10 8 5 8 10 10 10 4 0 -11 44 -67 87 -111 33 -34 78 -30
114 8 28 31 32 44 33 134 1 40 1 40 41 40 38 1 120 -21 193 -51 18 -8 47 -14
65 -14 38 0 62 -13 53 -29 -4 -6 -3 -11 2 -11 5 0 19 -33 32 -72 12 -40 32
-97 43 -127 13 -36 20 -80 21 -133 1 -76 2 -79 23 -73 16 4 21 1 17 -9 -3 -7
3 -21 12 -31 15 -14 15 -18 3 -26 -8 -5 -9 -9 -3 -9 15 0 35 -46 28 -65 -4 -8
-2 -15 4 -15 14 0 23 -40 9 -40 -7 0 -4 -7 7 -15 10 -7 15 -18 12 -24 -4 -6
-1 -21 5 -33 7 -13 14 -30 14 -38 1 -8 6 -32 10 -52 5 -27 4 -38 -4 -38 -13 0
-5 -68 10 -84 13 -14 11 -28 -3 -20 -8 5 -9 -2 -3 -27 4 -19 9 -45 10 -59 1
-14 5 -33 9 -42 8 -19 12 -290 4 -323 -27 -120 -120 -223 -208 -229 -61 -5
-171 12 -190 29 -11 10 -20 14 -20 9 0 -5 -11 3 -24 17 -14 15 -44 36 -68 48
-24 12 -58 31 -76 42 -43 25 -129 35 -176 19 -35 -11 -41 -19 -36 -49 1 -7 -1
-24 -4 -37 -5 -20 -13 -24 -46 -24 -21 0 -42 -4 -45 -10 -3 -5 -16 -10 -28
-10 -29 0 -196 -39 -220 -52 -11 -5 -20 -8 -22 -6 -2 2 1 26 6 53 9 46 7 55
-25 120 -47 93 -119 182 -163 200 -38 16 -103 20 -103 7 0 -4 16 -26 36 -48
39 -42 74 -112 74 -148 0 -60 -51 -116 -129 -141 -107 -35 -239 -18 -293 37
-28 29 -30 34 -23 82 9 73 35 124 91 179 l48 47 -40 0 c-22 0 -44 4 -50 10 -5
5 -19 11 -31 13 -13 2 -25 6 -28 9 -16 15 -65 -26 -88 -75 -24 -48 -29 -72
-43 -182 -3 -22 -12 -53 -20 -69 -8 -16 -14 -39 -14 -52 0 -13 -8 -28 -17 -33
-10 -6 -12 -11 -5 -11 17 0 15 -30 -3 -30 -21 0 -19 -30 3 -31 10 0 12 -3 4
-6 -6 -2 -10 -9 -6 -14 3 -5 -2 -9 -10 -9 -9 0 -16 -7 -16 -15 0 -11 -11 -15
-40 -15 -22 0 -40 4 -40 10 0 5 -7 6 -17 3 -11 -4 -14 -3 -9 5 5 8 0 12 -14
12 -12 0 -18 4 -15 10 6 10 -19 14 -64 10 -48 -4 -181 -112 -181 -147 0 -7 -6
-16 -13 -20 -7 -4 -19 -22 -26 -39 -25 -62 -110 -117 -124 -80 -4 9 -15 16
-26 16 -11 0 -26 6 -33 13 -7 7 -27 19 -44 26 -55 22 -93 71 -103 132 -5 30
-16 68 -24 84 -14 28 -29 102 -41 202 -3 24 -13 54 -22 68 -22 34 -35 153 -17
159 6 3 22 26 33 51 18 39 19 52 11 77 -6 17 -11 39 -11 49 0 11 -14 32 -30
47 -17 16 -30 32 -30 35 0 12 -52 57 -60 52 -4 -2 -10 4 -13 15 -3 13 1 21 14
25 10 4 22 17 25 30 3 13 14 31 25 41 10 9 19 23 19 29 0 20 119 125 142 125
16 0 19 -4 13 -22 -3 -13 -9 -57 -12 -98 -4 -62 -1 -83 16 -124 l21 -49 43 7
c75 13 298 34 427 41 51 2 55 5 61 31 4 16 7 54 8 86 1 52 3 56 22 51 34 -9
140 -113 146 -144 3 -15 16 -38 29 -50 13 -12 24 -28 24 -36 0 -7 4 -13 9 -13
5 0 11 -10 13 -22 4 -29 65 -39 74 -11 4 10 15 37 26 61 16 34 20 62 19 143
-1 56 -4 105 -6 110 -3 4 -10 34 -16 66 -5 32 -21 104 -35 160 -23 91 -24 109
-14 158 6 30 15 55 20 55 14 0 32 79 26 106 -4 13 -11 24 -16 24 -6 0 -24 14
-42 30 -17 17 -37 30 -45 30 -8 0 -28 7 -46 16 -17 10 -45 17 -62 16 -16 0
-35 4 -42 9 -7 6 -17 8 -22 5 -5 -4 -14 1 -19 9 -5 10 -24 17 -45 18 -20 1
-37 5 -37 8 0 6 -12 11 -62 24 -5 2 -9 4 -10 5 -2 1 -15 4 -31 6 -15 1 -65 10
-111 19 -46 8 -129 17 -185 18 -55 2 -103 6 -107 10 -4 3 -15 2 -26 -4 -23
-13 -39 -2 -18 11 12 8 11 10 -5 10 -23 1 -65 33 -65 50 0 6 -8 27 -18 48 -35
70 -68 326 -52 403 6 30 11 100 12 156 1 99 2 102 26 108 67 17 340 -4 412
-32 8 -3 20 -7 25 -8 48 -12 234 -99 315 -148 69 -42 224 -171 309 -258 77
-79 90 -89 123 -89 28 0 37 5 43 23 5 12 11 31 15 42 3 11 2 36 -3 55 -5 19
-11 46 -13 60 -8 64 -25 136 -44 193 -23 66 -26 74 -58 152 -12 28 -24 65 -27
83 -7 32 -6 33 22 27 15 -4 48 -14 73 -22z m-782 -1242 c2 -6 10 -11 18 -11
24 0 137 -56 169 -84 17 -14 33 -26 37 -26 13 0 68 -88 68 -109 0 -18 -5 -20
-52 -14 -29 3 -71 10 -93 15 -68 17 -267 30 -279 18 -5 -5 -19 -10 -30 -10
-12 0 -34 -7 -50 -15 -15 -8 -36 -15 -46 -15 -10 0 -20 -4 -22 -10 -1 -5 -15
-11 -29 -12 -18 -1 -25 -7 -22 -16 4 -10 -2 -13 -23 -10 -24 2 -29 8 -28 28 1
14 -3 28 -9 31 -10 7 10 110 23 119 4 3 15 20 24 37 17 34 67 65 140 88 49 16
199 12 204 -4z m1630 -119 c19 -24 14 -69 -10 -92 -44 -40 -108 -14 -108 45 0
30 5 37 37 54 40 20 60 18 81 -7z m-1738 -227 c36 -19 49 -59 29 -94 -17 -30
-60 -39 -96 -20 -34 18 -33 80 3 108 32 25 28 25 64 6z m4070 -431 c0 -8 -19
-13 -24 -6 -3 5 1 9 9 9 8 0 15 -2 15 -3z m-4343 -76 c-3 -8 -6 -5 -6 6 -1 11
2 17 5 13 3 -3 4 -12 1 -19z m-490 -400 c-3 -8 -6 -5 -6 6 -1 11 2 17 5 13 3
-3 4 -12 1 -19z m2400 -184 c-3 -3 -12 -4 -19 -1 -8 3 -5 6 6 6 11 1 17 -2 13
-5z m-137 -14 c11 -7 5 -10 -23 -10 -23 0 -36 4 -32 10 8 13 35 13 55 0z
m-205 -55 c-71 -25 -150 -50 -175 -56 -51 -12 -235 -14 -253 -2 -7 4 42 13
108 20 66 6 139 16 163 22 23 6 59 15 80 20 20 5 60 16 87 24 28 9 66 15 85
16 25 0 -2 -13 -95 -44z m713 -5 c14 -48 16 -166 2 -175 -5 -3 -10 -19 -10
-35 0 -16 -4 -32 -10 -35 -5 -3 -10 -19 -10 -36 0 -16 -4 -29 -10 -29 -5 0
-10 -9 -10 -20 0 -11 -4 -20 -10 -20 -5 0 -10 -6 -10 -13 0 -21 -49 -59 -71
-55 -19 3 -19 4 4 38 16 23 23 48 23 75 -1 47 -15 51 -65 18 -32 -22 -51 -29
-51 -18 0 11 155 272 176 298 13 16 24 33 24 38 0 23 16 5 28 -31z m-493 -126
c28 -28 27 -54 -3 -54 -10 0 -22 -4 -27 -9 -9 -7 -59 -25 -151 -52 -17 -5 -44
-9 -62 -9 -17 0 -34 -4 -37 -10 -3 -5 -30 -10 -59 -10 -28 0 -56 -4 -61 -9
-11 -11 -271 -15 -327 -5 -34 6 -36 8 -32 37 2 17 7 34 11 37 5 4 51 13 103
20 189 24 271 37 430 69 140 28 183 27 215 -5z m-1140 -161 c15 -16 47 -57 72
-92 l45 -64 -58 7 c-35 4 -63 13 -71 24 -10 11 -12 12 -8 2 4 -8 -3 -4 -14 9
-27 30 -35 62 -27 106 8 42 24 44 61 8z m3025 -1575 c69 -11 120 -34 120 -54
0 -17 -45 -47 -112 -73 -57 -23 -59 -23 -110 -6 -91 29 -134 90 -90 127 33 29
49 30 192 6z"/>
<path d="M5328 3247 c-5 -10 -8 -31 -8 -45 1 -24 2 -25 11 -9 6 10 9 30 7 45
-2 23 -4 24 -10 9z"/>
<path d="M5306 3127 c-8 -30 -7 -37 3 -37 11 0 21 49 11 55 -4 3 -10 -5 -14
-18z"/>
<path d="M6006 2930 c6 -6 21 -6 39 -1 30 9 30 9 -9 10 -26 1 -37 -2 -30 -9z"/>
<path d="M6100 2936 c0 -2 16 -6 35 -8 19 -2 35 0 35 4 0 4 -16 8 -35 8 -19 0
-35 -2 -35 -4z"/>
</g>
</svg>
